<?xml version="1.0" encoding="utf-8"?><svg width="40" height="40" viewBox="0 0 40 40" fill="none" xmlns="http://www.w3.org/2000/svg">
<g clip-path="url(#clip0_359_49126)">
<path d="M19.9996 35.4166C19.7821 35.4171 19.5674 35.3687 19.3712 35.2749C19.175 35.1811 19.0024 35.0445 18.8662 34.875L16.7204 32.2291L13.5412 33.45C13.3384 33.5277 13.1208 33.5592 12.9043 33.5421C12.6878 33.525 12.4778 33.4598 12.2898 33.3512C12.1017 33.2426 11.9402 33.0933 11.8172 32.9143C11.6942 32.7354 11.6127 32.5312 11.5787 32.3166L11.0496 28.95L7.68289 28.4208C7.46874 28.3861 7.265 28.3042 7.08643 28.181C6.90786 28.0578 6.75893 27.8964 6.65044 27.7085C6.54195 27.5207 6.47661 27.311 6.45916 27.0948C6.44171 26.8786 6.47259 26.6611 6.54955 26.4583L7.77039 23.2791L5.12455 21.1333C4.95572 20.9966 4.81957 20.8239 4.72605 20.6278C4.63252 20.4317 4.58398 20.2172 4.58398 20C4.58398 19.7827 4.63252 19.5682 4.72605 19.3722C4.81957 19.1761 4.95572 19.0034 5.12455 18.8666L7.77039 16.7208L6.54955 13.5416C6.47179 13.3389 6.4403 13.1213 6.45739 12.9047C6.47448 12.6882 6.53972 12.4783 6.64833 12.2902C6.75694 12.1021 6.9062 11.9407 7.08518 11.8176C7.26417 11.6946 7.46838 11.6131 7.68289 11.5791L11.0496 11.05L11.5787 7.68331C11.6151 7.47177 11.6978 7.2709 11.821 7.09512C11.9442 6.91934 12.1048 6.77302 12.2912 6.66664C12.4785 6.55663 12.6882 6.49047 12.9047 6.47316C13.1212 6.45584 13.3388 6.4878 13.5412 6.56664L16.7204 7.78748L18.8662 5.14164C19.0029 4.97281 19.1756 4.83666 19.3717 4.74314C19.5678 4.64961 19.7823 4.60107 19.9996 4.60107C20.2168 4.60107 20.4313 4.64961 20.6274 4.74314C20.8235 4.83666 20.9962 4.97281 21.1329 5.14164L23.2787 7.78748L26.4579 6.56664C26.6607 6.48968 26.8781 6.4588 27.0944 6.47625C27.3106 6.4937 27.5203 6.55904 27.7081 6.66753C27.896 6.77602 28.0574 6.92495 28.1806 7.10352C28.3037 7.28209 28.3857 7.48583 28.4204 7.69998L28.9496 11.0666L32.3162 11.5958C32.5304 11.6305 32.7341 11.7124 32.9127 11.8356C33.0912 11.9588 33.2402 12.1202 33.3487 12.3081C33.4572 12.4959 33.5225 12.7056 33.5399 12.9218C33.5574 13.1381 33.5265 13.3555 33.4496 13.5583L32.2287 16.7375L34.8746 18.8833C35.0434 19.02 35.1795 19.1927 35.2731 19.3888C35.3666 19.5849 35.4151 19.7994 35.4151 20.0166C35.4151 20.2339 35.3666 20.4484 35.2731 20.6445C35.1795 20.8405 35.0434 21.0133 34.8746 21.15L32.2287 23.2958L33.4496 26.475C33.5273 26.6778 33.5588 26.8954 33.5417 27.1119C33.5246 27.3284 33.4594 27.5384 33.3508 27.7264C33.2422 27.9145 33.0929 28.076 32.9139 28.199C32.7349 28.322 32.5307 28.4035 32.3162 28.4375L28.9496 28.9666L28.4204 32.3333C28.3857 32.5475 28.3037 32.7512 28.1806 32.9298C28.0574 33.1083 27.896 33.2573 27.7081 33.3658C27.5203 33.4742 27.3106 33.5396 27.0944 33.557C26.8781 33.5745 26.6607 33.5436 26.4579 33.4666L23.2787 32.2458L21.1329 34.875C20.9967 35.0445 20.8241 35.1811 20.6279 35.2749C20.4317 35.3687 20.217 35.4171 19.9996 35.4166ZM16.9204 30.8583C17.0139 30.8585 17.1061 30.8796 17.1905 30.92C17.2748 30.9603 17.3491 31.019 17.4079 31.0916L19.8371 34.0916C19.857 34.1153 19.8819 34.1343 19.9099 34.1474C19.938 34.1604 19.9686 34.1672 19.9996 34.1672C20.0305 34.1672 20.0611 34.1604 20.0892 34.1474C20.1172 34.1343 20.1421 34.1153 20.1621 34.0916L22.5912 31.0916C22.674 30.9891 22.7871 30.9153 22.9143 30.8809C23.0415 30.8465 23.1764 30.8532 23.2996 30.9L26.9037 32.2833C26.9319 32.2958 26.9624 32.3023 26.9933 32.3023C27.0242 32.3023 27.0547 32.2958 27.0829 32.2833C27.1101 32.2674 27.1336 32.2457 27.1515 32.2198C27.1695 32.1939 27.1817 32.1644 27.1871 32.1333L27.7871 28.3208C27.8075 28.19 27.869 28.0691 27.9626 27.9755C28.0562 27.8819 28.1771 27.8204 28.3079 27.8L32.1204 27.2C32.1515 27.1953 32.1811 27.1837 32.207 27.1659C32.2329 27.1482 32.2545 27.1249 32.2702 27.0976C32.2858 27.0704 32.295 27.0399 32.2973 27.0086C32.2995 26.9772 32.2945 26.9458 32.2829 26.9166L30.8996 23.3166C30.8524 23.1928 30.8456 23.0573 30.88 22.9293C30.9144 22.8014 30.9883 22.6876 31.0912 22.6041L34.0912 20.175C34.1149 20.155 34.1339 20.1302 34.147 20.1021C34.16 20.074 34.1668 20.0434 34.1668 20.0125C34.1668 19.9815 34.16 19.9509 34.147 19.9229C34.1339 19.8948 34.1149 19.8699 34.0912 19.85L31.0912 17.4208C30.9883 17.3374 30.9144 17.2235 30.88 17.0956C30.8456 16.9677 30.8524 16.8321 30.8996 16.7083L32.2829 13.1083C32.2945 13.0791 32.2995 13.0477 32.2973 13.0164C32.295 12.985 32.2858 12.9546 32.2702 12.9273C32.2545 12.9001 32.2329 12.8767 32.207 12.859C32.1811 12.8413 32.1515 12.8296 32.1204 12.825L28.3079 12.225C28.1771 12.2045 28.0562 12.143 27.9626 12.0494C27.869 11.9558 27.8075 11.8349 27.7871 11.7041L27.1871 7.89164C27.1824 7.86058 27.1708 7.83097 27.153 7.80503C27.1353 7.7791 27.1119 7.75751 27.0847 7.74188C27.0574 7.72625 27.027 7.71699 26.9957 7.71478C26.9643 7.71257 26.9329 7.71748 26.9037 7.72914L23.3037 9.11248C23.1799 9.15962 23.0444 9.16646 22.9164 9.13205C22.7885 9.09763 22.6747 9.02371 22.5912 8.92081L20.1621 5.92498C20.1425 5.90064 20.1178 5.88101 20.0897 5.86751C20.0615 5.85402 20.0307 5.84701 19.9996 5.84701C19.9684 5.84701 19.9376 5.85402 19.9094 5.86751C19.8813 5.88101 19.8566 5.90064 19.8371 5.92498L17.4079 8.92081C17.3244 9.02371 17.2106 9.09763 17.0827 9.13205C16.9547 9.16646 16.8192 9.15962 16.6954 9.11248L13.0954 7.72914C13.0675 7.71552 13.0368 7.70844 13.0058 7.70844C12.9748 7.70844 12.9441 7.71552 12.9162 7.72914C12.889 7.74506 12.8656 7.76672 12.8476 7.79263C12.8296 7.81854 12.8175 7.84806 12.8121 7.87914L12.2121 11.6916C12.1922 11.8227 12.1309 11.9439 12.0372 12.0376C11.9435 12.1314 11.8223 12.1926 11.6912 12.2125L7.87872 12.8125C7.84745 12.8173 7.81769 12.8292 7.7917 12.8472C7.76571 12.8653 7.74417 12.889 7.72872 12.9166C7.71603 12.9441 7.70945 12.9739 7.70945 13.0041C7.70945 13.0344 7.71603 13.0642 7.72872 13.0916L9.11205 16.6958C9.15919 16.8196 9.16604 16.9552 9.13162 17.0831C9.09721 17.211 9.02328 17.3249 8.92039 17.4083L5.92455 19.8375C5.90022 19.857 5.88058 19.8817 5.86709 19.9099C5.8536 19.938 5.84659 19.9688 5.84659 20C5.84659 20.0312 5.8536 20.062 5.86709 20.0901C5.88058 20.1182 5.90022 20.143 5.92455 20.1625L8.92039 22.5916C9.02294 22.6744 9.09669 22.7875 9.13112 22.9147C9.16554 23.0419 9.15887 23.1768 9.11205 23.3L7.72872 26.9041C7.7162 26.9324 7.70973 26.9629 7.70973 26.9937C7.70973 27.0246 7.7162 27.0551 7.72872 27.0833C7.74463 27.1105 7.7663 27.134 7.79221 27.152C7.81812 27.17 7.84764 27.1821 7.87872 27.1875L11.6912 27.7875C11.8223 27.8073 11.9435 27.8686 12.0372 27.9623C12.1309 28.056 12.1922 28.1773 12.2121 28.3083L12.8121 32.1208C12.8167 32.1519 12.8284 32.1815 12.8461 32.2074C12.8638 32.2334 12.8872 32.2549 12.9144 32.2706C12.9417 32.2862 12.9721 32.2955 13.0034 32.2977C13.0348 32.2999 13.0662 32.295 13.0954 32.2833L16.6954 30.9C16.7671 30.8721 16.8434 30.8579 16.9204 30.8583Z" fill="white"/>
<path d="M24.8265 14.2894L14.3319 24.7841C14.2505 24.8654 14.2505 24.9974 14.3319 25.0787L14.9211 25.668C15.0025 25.7493 15.1344 25.7493 15.2158 25.668L25.7104 15.1733C25.7918 15.092 25.7918 14.9601 25.7104 14.8787L25.1212 14.2894C25.0398 14.2081 24.9079 14.2081 24.8265 14.2894Z" fill="white"/>
<path d="M16.458 18.3333C16.0872 18.3333 15.7247 18.2233 15.4163 18.0173C15.108 17.8112 14.8676 17.5184 14.7257 17.1758C14.5838 16.8332 14.5467 16.4562 14.619 16.0925C14.6914 15.7287 14.87 15.3947 15.1322 15.1324C15.3944 14.8702 15.7285 14.6916 16.0922 14.6193C16.4559 14.5469 16.8329 14.5841 17.1755 14.726C17.5182 14.8679 17.811 15.1082 18.017 15.4166C18.223 15.7249 18.333 16.0874 18.333 16.4583C18.3319 16.9552 18.134 17.4315 17.7826 17.7829C17.4312 18.1343 16.955 18.3322 16.458 18.3333ZM16.458 15.8333C16.3344 15.8333 16.2136 15.8699 16.1108 15.9386C16.008 16.0073 15.9279 16.1049 15.8806 16.2191C15.8333 16.3333 15.8209 16.4589 15.845 16.5802C15.8691 16.7014 15.9287 16.8128 16.0161 16.9002C16.1035 16.9876 16.2148 17.0471 16.3361 17.0712C16.4573 17.0954 16.583 17.083 16.6972 17.0357C16.8114 16.9884 16.909 16.9083 16.9777 16.8055C17.0464 16.7027 17.083 16.5819 17.083 16.4583C17.083 16.2925 17.0172 16.1335 16.9 16.0163C16.7827 15.8991 16.6238 15.8333 16.458 15.8333Z" fill="white"/>
<path d="M23.541 25.4165C23.1702 25.4165 22.8077 25.3065 22.4993 25.1005C22.191 24.8945 21.9507 24.6016 21.8087 24.259C21.6668 23.9164 21.6297 23.5394 21.702 23.1757C21.7744 22.812 21.953 22.4779 22.2152 22.2157C22.4774 21.9535 22.8115 21.7749 23.1752 21.7025C23.5389 21.6302 23.9159 21.6673 24.2585 21.8092C24.6012 21.9511 24.894 22.1915 25.1 22.4998C25.306 22.8082 25.416 23.1707 25.416 23.5415C25.4149 24.0384 25.217 24.5147 24.8656 24.8661C24.5142 25.2175 24.038 25.4154 23.541 25.4165ZM23.541 22.9165C23.4174 22.9165 23.2966 22.9532 23.1938 23.0218C23.091 23.0905 23.0109 23.1881 22.9636 23.3023C22.9163 23.4165 22.9039 23.5422 22.928 23.6634C22.9521 23.7847 23.0117 23.896 23.0991 23.9834C23.1865 24.0709 23.2978 24.1304 23.4191 24.1545C23.5403 24.1786 23.666 24.1662 23.7802 24.1189C23.8944 24.0716 23.992 23.9915 24.0607 23.8887C24.1294 23.786 24.166 23.6651 24.166 23.5415C24.166 23.3757 24.1002 23.2168 23.983 23.0996C23.8657 22.9824 23.7068 22.9165 23.541 22.9165Z" fill="white"/>
</g>
<defs>
<clipPath id="clip0_359_49126">
<rect width="30.8333" height="30.8333" fill="white" transform="translate(4.58301 4.58325)"/>
</clipPath>
</defs>
</svg>
